<?xml version="1.0" standalone="no"?>
<!DOCTYPE svg PUBLIC "-//W3C//DTD SVG 20010904//EN"
 "http://www.w3.org/TR/2001/REC-SVG-20010904/DTD/svg10.dtd">
<svg version="1.0" xmlns="http://www.w3.org/2000/svg"
 width="2048.000000pt" height="2048.000000pt" viewBox="0 0 2048.000000 2048.000000"
 preserveAspectRatio="xMidYMid meet">

<g transform="translate(0.000000,2048.000000) scale(0.100000,-0.100000)"
fill="#000000" stroke="none">
<path d="M13706 15611 c-3 -5 -113 -98 -243 -208 -131 -109 -362 -302 -513
-429 -253 -212 -699 -580 -848 -699 -34 -27 -62 -52 -62 -55 0 -3 98 -18 218
-34 338 -45 521 -72 527 -78 3 -2 -18 -78 -46 -169 -185 -599 -535 -1249 -984
-1824 -261 -335 -682 -766 -1035 -1062 -236 -198 -600 -454 -900 -635 -708
-425 -1442 -704 -2125 -808 -198 -30 -547 -38 -706 -16 -402 56 -654 198 -779
436 -52 101 -70 180 -70 313 0 173 35 304 135 502 43 85 44 88 14 55 -52 -60
-149 -210 -199 -310 -87 -174 -121 -313 -121 -498 1 -426 292 -747 812 -897
257 -74 463 -100 804 -99 269 0 430 13 685 55 1178 192 2495 845 3530 1748
302 264 680 658 924 965 235 296 480 653 652 951 118 206 311 599 389 790 31
77 60 150 65 162 9 21 20 16 335 -133 180 -85 329 -154 331 -154 3 0 -2 13
-11 29 -22 43 -81 208 -435 1216 -157 448 -258 728 -300 838 -22 55 -33 67
-44 48z"/>
<path d="M11403 12308 c-59 -45 -276 -210 -481 -367 -592 -454 -895 -681 -906
-681 -6 0 -72 55 -146 122 -74 66 -171 153 -216 192 -44 39 -141 125 -214 191
-74 66 -155 138 -181 160 -26 22 -85 74 -131 115 -46 41 -138 122 -204 179
-65 58 -129 113 -141 124 l-22 19 -123 -94 c-68 -52 -206 -159 -308 -239 -102
-79 -283 -218 -404 -309 -241 -182 -636 -482 -848 -645 l-138 -106 0 -305 0
-304 99 72 c118 87 517 388 686 519 257 199 984 751 1006 765 5 3 22 -2 37
-12 30 -19 22 -12 476 -410 176 -153 338 -295 360 -314 23 -19 79 -68 126
-109 47 -41 95 -84 107 -94 l22 -20 108 69 c527 336 1095 860 1538 1418 74 94
77 100 59 113 -49 37 -48 37 -161 -49z"/>
<path d="M12965 11643 c-60 -76 -159 -194 -219 -263 -140 -160 -661 -679 -794
-790 l-102 -85 0 -1031 c0 -1167 -5 -1090 80 -1175 80 -80 83 -80 567 -77
l420 3 49 30 c53 33 107 104 124 163 7 25 10 516 10 1457 0 1343 -6 1905 -19
1905 -3 0 -55 -62 -116 -137z"/>
<path d="M8658 11347 l-78 -60 0 -589 c0 -323 1 -588 3 -588 11 0 293 118 407
169 228 104 644 326 638 341 -5 13 -810 725 -878 776 -12 9 -30 0 -92 -49z"/>
<path d="M8110 10929 c-78 -60 -103 -85 -41 -41 24 17 49 29 54 25 6 -3 7 -1
4 4 -4 6 4 18 18 27 21 14 24 14 19 1 -4 -8 -2 -15 3 -15 5 0 8 -130 6 -297
-1 -164 -2 -367 -2 -451 0 -171 -5 -185 -66 -185 -19 0 -33 -5 -32 -10 1 -5
-16 -15 -38 -22 -68 -22 -25 -16 65 9 l85 23 3 492 c1 270 -1 491 -5 490 -5 0
-37 -23 -73 -50z"/>
<path d="M7989 10833 c-13 -16 -12 -17 4 -4 16 13 21 21 13 21 -2 0 -10 -8
-17 -17z"/>
<path d="M7920 10784 c-56 -44 -73 -62 -39 -40 14 9 29 13 33 9 4 -5 6 -1 4 7
-2 9 4 15 17 15 11 0 20 7 20 15 1 8 7 14 14 12 7 -1 10 2 6 8 -8 12 -2 15
-55 -26z"/>
<path d="M7819 10703 c-13 -16 -12 -17 4 -4 16 13 21 21 13 21 -2 0 -10 -8
-17 -17z"/>
<path d="M7779 10673 c-13 -16 -12 -17 4 -4 9 7 17 15 17 17 0 8 -8 3 -21 -13z"/>
<path d="M7739 10643 c-13 -16 -12 -17 4 -4 9 7 17 15 17 17 0 8 -8 3 -21 -13z"/>
<path d="M7699 10613 c-13 -16 -12 -17 4 -4 16 13 21 21 13 21 -2 0 -10 -8
-17 -17z"/>
<path d="M7640 10569 c-35 -31 -35 -31 -3 -9 18 11 35 25 38 30 10 16 2 11
-35 -21z"/>
<path d="M7529 10483 c-13 -16 -12 -17 4 -4 16 13 21 21 13 21 -2 0 -10 -8
-17 -17z"/>
<path d="M7470 10439 c-35 -31 -35 -31 -3 -9 18 11 35 25 38 30 10 16 2 11
-35 -21z"/>
<path d="M7409 10393 c-13 -16 -12 -17 4 -4 16 13 21 21 13 21 -2 0 -10 -8
-17 -17z"/>
<path d="M7369 10363 c-13 -16 -12 -17 4 -4 16 13 21 21 13 21 -2 0 -10 -8
-17 -17z"/>
<path d="M7319 10323 c-13 -16 -12 -17 4 -4 9 7 17 15 17 17 0 8 -8 3 -21 -13z"/>
<path d="M7274 10288 l-19 -23 23 19 c21 18 27 26 19 26 -2 0 -12 -10 -23 -22z"/>
<path d="M7189 10223 c-13 -16 -12 -17 4 -4 9 7 17 15 17 17 0 8 -8 3 -21 -13z"/>
<path d="M7095 10154 c-38 -29 -69 -58 -67 -64 1 -5 -2 -9 -7 -7 -6 1 -23 -7
-40 -18 -29 -19 -30 -22 -33 -107 l-3 -88 33 -5 c17 -3 48 -7 67 -11 20 -3
121 -5 226 -5 193 1 449 29 589 66 51 13 52 14 10 8 -25 -4 -54 -7 -65 -8 -11
-1 -38 -6 -60 -10 -22 -5 -53 -9 -70 -10 -16 -1 -41 -4 -55 -8 -66 -18 -500
-32 -500 -16 0 4 -12 6 -27 4 -16 -2 -50 -1 -78 2 l-50 5 -1 69 c-1 38 3 69 8
69 5 0 6 5 3 10 -4 6 6 16 22 23 36 16 73 48 73 64 0 7 4 13 9 13 5 0 28 18
52 40 60 55 47 49 -36 -16z"/>
<path d="M11415 10169 c-80 -60 -383 -259 -535 -349 -176 -105 -418 -235 -574
-309 l-106 -50 3 -513 c2 -498 3 -514 23 -559 30 -65 81 -119 139 -145 50 -24
51 -24 475 -24 l425 0 50 24 c63 29 102 68 131 131 l24 50 0 888 c0 488 -3
887 -7 887 -5 0 -26 -14 -48 -31z"/>
<path d="M8142 10082 c5 -16 0 -23 -21 -31 l-26 -9 33 -1 c28 -1 32 2 32 23 0
14 -5 28 -12 32 -7 5 -9 0 -6 -14z"/>
<path d="M7945 9944 c-32 -14 -17 -17 25 -5 14 4 20 9 15 13 -6 3 -23 -1 -40
-8z"/>
<path d="M9710 9248 c-180 -75 -566 -197 -810 -257 -135 -33 -262 -62 -282
-66 l-38 -6 0 -242 c0 -234 1 -244 24 -293 29 -62 85 -120 140 -145 38 -17 73
-19 462 -19 l420 0 52 26 c29 14 67 44 86 66 65 75 66 84 66 555 0 332 -3 423
-12 422 -7 -1 -56 -19 -108 -41z"/>
<path d="M6933 8663 c6 -247 13 -283 77 -356 23 -26 60 -53 90 -66 50 -21 58
-22 478 -19 l427 3 46 27 c56 33 95 77 123 138 19 41 21 64 21 250 0 131 -4
204 -10 203 -121 -18 -287 -27 -500 -28 -268 0 -432 12 -615 46 -58 10 -113
19 -124 19 -18 0 -18 -9 -13 -217z"/>
<path d="M14619 7316 c-149 -53 -204 -243 -109 -374 63 -88 211 -122 313 -73
51 25 102 78 123 127 19 44 18 146 -2 192 -47 113 -200 173 -325 128z"/>
<path d="M13682 6866 l3 -363 -49 43 c-100 90 -241 137 -411 137 -317 -1 -564
-180 -664 -478 -63 -188 -62 -376 2 -565 55 -161 163 -295 304 -379 109 -65
176 -83 328 -88 205 -8 329 32 447 145 l58 55 0 -55 c0 -31 3 -70 6 -87 l7
-31 193 0 194 0 0 1015 0 1015 -211 0 -210 0 3 -364z m-253 -545 c99 -31 161
-86 211 -186 41 -84 56 -182 41 -282 -21 -147 -97 -254 -219 -311 -49 -23 -70
-27 -152 -27 -81 1 -103 5 -152 27 -145 67 -228 208 -228 388 0 135 45 247
130 324 91 81 238 108 369 67z"/>
<path d="M6010 7144 c-157 -29 -253 -67 -347 -138 -137 -104 -203 -247 -203
-442 0 -154 39 -262 128 -351 85 -85 171 -121 572 -238 194 -56 278 -103 316
-176 37 -72 4 -185 -67 -231 -155 -100 -518 -27 -774 158 -61 43 -81 53 -88
43 -20 -36 -177 -321 -177 -324 0 -1 31 -23 70 -49 129 -87 320 -167 482 -202
113 -25 334 -30 447 -10 279 49 478 207 536 427 22 82 19 237 -6 311 -68 201
-214 302 -613 418 -230 67 -300 96 -347 142 -38 39 -49 66 -49 126 0 68 33
120 95 151 43 21 63 25 145 24 146 -2 348 -54 518 -136 71 -34 73 -34 83 -14
6 11 42 87 80 170 47 102 66 154 59 162 -18 22 -174 93 -260 119 -145 43 -246
58 -415 61 -88 2 -171 1 -185 -1z"/>
<path d="M7995 6680 c-131 -20 -232 -67 -317 -148 l-58 -55 0 45 c0 25 -3 66
-6 92 l-7 46 -188 0 -189 0 0 -985 0 -985 205 0 205 0 0 328 0 329 41 -38 c54
-50 161 -105 240 -124 93 -22 258 -19 353 5 301 77 498 334 522 685 15 212
-59 444 -187 588 -143 161 -395 250 -614 217z m90 -351 c162 -30 272 -153 298
-335 29 -198 -56 -380 -211 -452 -50 -24 -69 -27 -157 -27 -89 0 -107 4 -162
29 -242 111 -301 476 -110 683 47 51 99 81 172 99 64 16 98 16 170 3z"/>
<path d="M9681 6679 c-315 -29 -558 -225 -653 -529 -20 -66 -23 -95 -23 -230
1 -147 3 -160 33 -250 63 -189 195 -336 377 -422 205 -95 504 -103 707 -19 79
34 190 106 238 155 l34 36 -110 111 -111 111 -54 -41 c-192 -146 -503 -124
-637 46 -31 40 -72 115 -72 133 0 7 171 10 534 10 l535 0 7 46 c11 76 -3 252
-26 334 -54 189 -187 358 -341 434 -131 64 -277 89 -438 75z m161 -330 c74
-16 117 -40 166 -93 46 -50 78 -115 88 -177 l7 -39 -352 0 -351 0 6 28 c4 15
17 50 30 78 74 160 234 239 406 203z"/>
<path d="M11555 6681 c-141 -23 -237 -66 -324 -147 l-61 -56 0 86 0 86 -190 0
-190 0 0 -730 0 -730 200 0 200 0 0 383 c0 210 5 413 10 452 19 129 77 217
176 266 67 33 215 34 285 2 63 -29 113 -81 141 -150 23 -57 23 -63 26 -505 l3
-448 205 0 205 0 -3 508 c-4 483 -5 511 -26 585 -70 253 -242 385 -522 401
-47 2 -108 1 -135 -3z"/>
<path d="M14509 6656 c-2 -2 -3 -333 -1 -735 l2 -731 198 2 197 3 3 733 2 732
-198 0 c-109 0 -201 -2 -203 -4z"/>
</g>
</svg>
